<?xml version="1.0" standalone="no"?>
<!DOCTYPE svg PUBLIC "-//W3C//DTD SVG 20010904//EN"
 "http://www.w3.org/TR/2001/REC-SVG-20010904/DTD/svg10.dtd">
<svg version="1.0" xmlns="http://www.w3.org/2000/svg"
 width="400.000000pt" height="400.000000pt" viewBox="0 0 400.000000 400.000000"
 preserveAspectRatio="xMidYMid meet">
<metadata>
Created by potrace 1.14, written by Peter Selinger 2001-2017
</metadata>
<g transform="translate(0.000000,400.000000) scale(0.100000,-0.100000)"
fill="#fbfbfe" stroke="none">
<path d="M2103 3624 c-18 -18 -71 -51 -117 -73 -81 -39 -128 -79 -141 -121 -6
-20 -58 -40 -105 -40 -40 0 -126 -56 -161 -104 -17 -25 -49 -57 -71 -72 -63
-44 -98 -90 -98 -129 0 -85 -97 -272 -187 -362 -55 -54 -55 -54 -48 -101 9
-58 16 -73 57 -107 21 -18 39 -25 56 -22 14 3 39 -4 59 -15 64 -38 138 -7 152
63 5 29 20 43 90 90 118 79 163 94 296 94 91 1 119 5 160 23 46 21 48 21 25 2
-27 -21 -121 -60 -146 -60 -8 0 -22 -17 -30 -37 -72 -177 -114 -225 -280 -325
-118 -72 -179 -129 -240 -225 -32 -49 -38 -66 -38 -113 0 -184 198 -330 446
-330 90 0 153 27 215 91 50 53 63 84 63 152 0 72 -16 122 -52 162 -38 44 -26
44 33 1 66 -48 93 -109 87 -190 -6 -75 -35 -134 -85 -175 -41 -34 -39 -42 19
-61 46 -14 52 -11 78 43 12 23 30 58 41 78 27 51 179 194 269 254 74 49 95 76
102 125 3 22 0 25 -27 22 -16 -2 -76 -25 -131 -52 -81 -39 -111 -60 -148 -102
l-46 -53 6 35 c20 112 47 178 112 276 34 51 129 144 146 144 6 0 35 24 105 87
l36 31 -17 114 c-9 62 -21 126 -28 142 l-11 29 -22 -21 c-12 -11 -37 -31 -56
-44 -33 -22 -34 -25 -37 -97 -2 -40 -8 -89 -15 -109 -16 -48 -78 -113 -161
-168 -38 -25 -88 -62 -110 -82 l-40 -36 16 39 c20 47 25 53 108 137 84 84 128
170 135 262 4 48 2 66 -6 66 -18 0 -150 -86 -187 -122 -18 -16 -34 -26 -37
-21 -11 18 22 104 53 140 18 21 62 57 97 81 61 41 64 45 57 75 -16 77 -90 163
-240 278 -110 85 -125 103 -145 168 -11 38 -10 44 8 69 23 31 70 42 79 18 3
-9 1 -29 -4 -46 -9 -25 -8 -30 4 -30 26 0 61 48 77 108 20 74 31 168 21 174
-5 3 -24 -10 -41 -28z m-233 -443 c30 -10 60 -27 67 -37 30 -41 6 -148 -39
-178 -39 -25 -108 -30 -171 -12 -30 9 -58 16 -61 16 -14 0 -4 -22 25 -55 31
-35 32 -36 12 -50 -11 -8 -39 -30 -62 -49 -23 -19 -62 -45 -87 -58 -56 -27
-90 -66 -104 -117 -5 -20 -22 -48 -36 -62 -24 -21 -26 -22 -19 -4 19 50 18 55
-9 55 -15 0 -29 7 -33 16 -9 24 26 82 71 118 88 69 115 102 122 145 4 23 18
58 31 78 17 25 21 39 14 46 -33 33 8 105 80 141 64 31 123 34 199 7z"/>
<path d="M1693 3148 c-21 -10 -51 -64 -41 -74 3 -2 19 3 35 12 29 17 63 14 63
-6 0 -5 -13 -10 -30 -10 -38 0 -38 -14 -1 -51 44 -43 124 -39 150 9 14 27 -21
97 -58 116 -34 18 -85 20 -118 4z"/>
<path d="M1710 3634 c-14 -3 -44 -7 -67 -10 -24 -3 -43 -9 -43 -13 0 -17 85
-46 128 -43 29 2 57 -4 88 -18 36 -18 47 -20 59 -10 21 17 19 33 -7 57 -33 30
-101 45 -158 37z"/>
<path d="M2197 3561 c-22 -4 -32 -15 -42 -43 l-12 -37 91 0 c108 1 130 -6 210
-70 117 -93 147 -91 98 5 -37 73 -84 118 -141 139 -43 15 -150 18 -204 6z"/>
<path d="M1695 3518 c-10 -6 -39 -26 -62 -44 -65 -50 -102 -53 -174 -16 -52
27 -59 28 -59 13 0 -43 75 -104 142 -116 29 -6 43 -3 63 13 30 24 100 48 165
56 36 5 48 12 61 35 9 16 14 33 10 39 -18 29 -109 41 -146 20z"/>
<path d="M2210 3453 c-59 -9 -72 -15 -90 -46 -24 -39 -25 -90 -2 -140 9 -20
74 -95 144 -165 121 -122 126 -130 132 -177 9 -69 29 -138 43 -142 15 -5 71
44 90 80 22 43 20 124 -5 172 -27 54 -70 93 -187 173 -71 47 -100 73 -100 87
0 14 8 21 27 23 35 4 81 -20 141 -74 101 -90 197 -114 318 -78 122 36 174 78
186 150 7 40 -5 43 -37 9 -29 -31 -106 -55 -174 -55 -73 1 -137 27 -252 103
-73 49 -116 70 -154 77 -29 5 -53 9 -54 9 0 -1 -12 -3 -26 -6z"/>
<path d="M2550 3112 c0 -24 60 -132 95 -171 35 -38 90 -69 102 -57 3 3 -1 14
-9 23 -22 25 -74 130 -89 180 -12 42 -12 42 -55 40 -28 -1 -44 -7 -44 -15z"/>
<path d="M2680 3086 c0 -35 49 -134 107 -214 l17 -24 -67 7 -66 7 9 -33 c24
-84 4 -246 -36 -290 -13 -14 -17 -35 -15 -86 1 -60 -22 -183 -44 -235 -10 -24
15 -23 67 2 l40 19 -4 -52 c-6 -74 -36 -109 -148 -174 -217 -126 -296 -194
-357 -310 -33 -61 -63 -164 -63 -218 0 -29 2 -28 57 35 112 127 127 136 303
202 108 40 181 82 251 145 22 20 42 33 45 30 10 -9 -32 -80 -104 -177 -104
-139 -127 -226 -83 -308 17 -33 29 -27 42 21 11 43 25 58 242 262 98 92 118
144 118 295 0 151 -14 199 -107 366 l-35 62 20 59 c45 134 52 330 15 423 -9
25 -30 64 -46 87 -50 74 -158 142 -158 99z"/>
<path d="M1484 1623 c-13 -49 -8 -110 13 -150 17 -32 30 -42 81 -60 112 -40
208 -55 364 -54 313 0 418 53 418 213 0 20 -5 40 -10 43 -23 14 -115 -52 -167
-118 -28 -37 -53 -73 -56 -79 -3 -10 -10 -8 -23 5 -14 13 -19 33 -20 80 -1 34
-2 67 -3 73 -1 8 -67 13 -223 16 -226 4 -248 8 -350 52 -13 6 -19 1 -24 -21z"/>
<path d="M1345 1394 c-66 -46 -137 -98 -159 -116 -69 -56 -103 -165 -75 -242
14 -39 88 -97 172 -137 189 -88 649 -153 843 -118 86 15 224 58 262 81 46 28
43 51 -5 41 -144 -30 -391 39 -409 114 -9 35 6 72 39 97 24 18 42 21 125 21
103 0 169 -14 242 -51 47 -23 116 -89 121 -114 6 -27 -11 -69 -31 -80 -28 -15
-25 -30 8 -30 66 1 167 59 202 115 48 77 0 230 -100 324 -28 26 -216 161 -224
161 -3 0 -6 -11 -6 -25 0 -41 -83 -116 -152 -138 -188 -58 -452 -37 -625 51
-47 24 -93 75 -93 102 0 10 -4 21 -8 24 -4 2 -62 -33 -127 -80z"/>
<path d="M1084 899 c-21 -41 -20 -122 2 -200 22 -78 68 -119 226 -199 227
-116 415 -138 813 -94 158 17 430 91 510 139 81 47 102 87 124 230 9 56 8 63
-18 105 -32 53 -56 62 -65 26 -10 -40 -60 -90 -120 -119 -30 -15 -60 -27 -65
-27 -24 0 -9 -18 19 -23 56 -12 23 -76 -51 -97 -63 -18 -86 5 -53 56 9 13 15
26 13 29 -2 2 -40 -7 -84 -20 -98 -28 -295 -50 -384 -42 -36 3 -123 17 -194
31 -70 14 -166 30 -214 37 -140 18 -236 60 -369 161 -28 21 -56 38 -62 38 -6
0 -19 -14 -28 -31z"/>
</g>
</svg>
